<?xml version="1.0" encoding="UTF-8" standalone="no"?>
<svg
   xmlns:dc="http://purl.org/dc/elements/1.1/"
   xmlns:cc="http://creativecommons.org/ns#"
   xmlns:rdf="http://www.w3.org/1999/02/22-rdf-syntax-ns#"
   xmlns:svg="http://www.w3.org/2000/svg"
   xmlns="http://www.w3.org/2000/svg"
   xmlns:sodipodi="http://sodipodi.sourceforge.net/DTD/sodipodi-0.dtd"
   xmlns:inkscape="http://www.inkscape.org/namespaces/inkscape"
   width="216pt"
   height="216pt"
   viewBox="0 0 216 216"
   version="1.2"
   id="svg193"
   sodipodi:docname="logo.svg"
   inkscape:version="0.92.3 (2405546, 2018-03-11)">
  <metadata
     id="metadata197">
    <rdf:RDF>
      <cc:Work
         rdf:about="">
        <dc:format>image/svg+xml</dc:format>
        <dc:type
           rdf:resource="http://purl.org/dc/dcmitype/StillImage" />
        <dc:title />
      </cc:Work>
    </rdf:RDF>
  </metadata>
  <sodipodi:namedview
     pagecolor="#ffffff"
     bordercolor="#666666"
     borderopacity="1"
     objecttolerance="10"
     gridtolerance="10"
     guidetolerance="10"
     inkscape:pageopacity="0"
     inkscape:pageshadow="2"
     inkscape:window-width="1850"
     inkscape:window-height="1016"
     id="namedview195"
     showgrid="false"
     inkscape:zoom="2.3177389"
     inkscape:cx="63.130863"
     inkscape:cy="170.43837"
     inkscape:window-x="70"
     inkscape:window-y="27"
     inkscape:window-maximized="1"
     inkscape:current-layer="svg193" />
  <defs
     id="defs74">
    <clipPath
       id="clip1">
      <path
         d="M 142 105 L 210 105 L 210 173 L 142 173 Z M 142 105 "
         id="path2" />
    </clipPath>
    <clipPath
       id="clip2">
      <path
         d="M 142.945312 138.558594 C 142.945312 157.074219 157.953125 172.085938 176.472656 172.085938 C 194.988281 172.085938 210 157.074219 210 138.558594 C 210 120.039062 194.988281 105.03125 176.472656 105.03125 C 157.953125 105.03125 142.945312 120.039062 142.945312 138.558594 "
         id="path5" />
    </clipPath>
    <clipPath
       id="clip3">
      <path
         d="M 152 121 L 210 121 L 210 173 L 152 173 Z M 152 121 "
         id="path8" />
    </clipPath>
    <clipPath
       id="clip4">
      <path
         d="M 142.945312 138.558594 C 142.945312 157.074219 157.953125 172.085938 176.472656 172.085938 C 194.988281 172.085938 210 157.074219 210 138.558594 C 210 120.039062 194.988281 105.03125 176.472656 105.03125 C 157.953125 105.03125 142.945312 120.039062 142.945312 138.558594 "
         id="path11" />
    </clipPath>
    <clipPath
       id="clip5">
      <path
         d="M 73 105 L 142 105 L 142 173 L 73 173 Z M 73 105 "
         id="path14" />
    </clipPath>
    <clipPath
       id="clip6">
      <path
         d="M 73.949219 138.558594 C 73.949219 157.074219 88.960938 172.085938 107.476562 172.085938 C 125.992188 172.085938 141.003906 157.074219 141.003906 138.558594 C 141.003906 120.039062 125.992188 105.03125 107.476562 105.03125 C 88.960938 105.03125 73.949219 120.039062 73.949219 138.558594 "
         id="path17" />
    </clipPath>
    <clipPath
       id="clip7">
      <path
         d="M 81 128 L 142 128 L 142 173 L 81 173 Z M 81 128 "
         id="path20" />
    </clipPath>
    <clipPath
       id="clip8">
      <path
         d="M 73.949219 138.558594 C 73.949219 157.074219 88.960938 172.085938 107.476562 172.085938 C 125.992188 172.085938 141.003906 157.074219 141.003906 138.558594 C 141.003906 120.039062 125.992188 105.03125 107.476562 105.03125 C 88.960938 105.03125 73.949219 120.039062 73.949219 138.558594 "
         id="path23" />
    </clipPath>
    <clipPath
       id="clip9">
      <path
         d="M 4 105 L 73 105 L 73 173 L 4 173 Z M 4 105 "
         id="path26" />
    </clipPath>
    <clipPath
       id="clip10">
      <path
         d="M 4.949219 138.558594 C 4.949219 157.074219 19.960938 172.085938 38.480469 172.085938 C 56.996094 172.085938 72.007812 157.074219 72.007812 138.558594 C 72.007812 120.039062 56.996094 105.03125 38.480469 105.03125 C 19.960938 105.03125 4.949219 120.039062 4.949219 138.558594 "
         id="path29" />
    </clipPath>
    <clipPath
       id="clip11">
      <path
         d="M 35 125 L 73 125 L 73 173 L 35 173 Z M 35 125 "
         id="path32" />
    </clipPath>
    <clipPath
       id="clip12">
      <path
         d="M 4.949219 138.558594 C 4.949219 157.074219 19.960938 172.085938 38.480469 172.085938 C 56.996094 172.085938 72.007812 157.074219 72.007812 138.558594 C 72.007812 120.039062 56.996094 105.03125 38.480469 105.03125 C 19.960938 105.03125 4.949219 120.039062 4.949219 138.558594 "
         id="path35" />
    </clipPath>
    <clipPath
       id="clip13">
      <path
         d="M 142 25 L 210 25 L 210 94 L 142 94 Z M 142 25 "
         id="path38" />
    </clipPath>
    <clipPath
       id="clip14">
      <path
         d="M 142.945312 59.476562 C 142.945312 77.996094 157.953125 93.007812 176.472656 93.007812 C 194.988281 93.007812 210 77.996094 210 59.476562 C 210 40.960938 194.988281 25.949219 176.472656 25.949219 C 157.953125 25.949219 142.945312 40.960938 142.945312 59.476562 "
         id="path41" />
    </clipPath>
    <clipPath
       id="clip15">
      <path
         d="M 160 42 L 210 42 L 210 94 L 160 94 Z M 160 42 "
         id="path44" />
    </clipPath>
    <clipPath
       id="clip16">
      <path
         d="M 142.945312 59.476562 C 142.945312 77.996094 157.953125 93.007812 176.472656 93.007812 C 194.988281 93.007812 210 77.996094 210 59.476562 C 210 40.960938 194.988281 25.949219 176.472656 25.949219 C 157.953125 25.949219 142.945312 40.960938 142.945312 59.476562 "
         id="path47" />
    </clipPath>
    <clipPath
       id="clip17">
      <path
         d="M 73 25 L 142 25 L 142 94 L 73 94 Z M 73 25 "
         id="path50" />
    </clipPath>
    <clipPath
       id="clip18">
      <path
         d="M 73.949219 59.476562 C 73.949219 77.996094 88.960938 93.007812 107.476562 93.007812 C 125.992188 93.007812 141.003906 77.996094 141.003906 59.476562 C 141.003906 40.960938 125.992188 25.949219 107.476562 25.949219 C 88.960938 25.949219 73.949219 40.960938 73.949219 59.476562 "
         id="path53" />
    </clipPath>
    <clipPath
       id="clip19">
      <path
         d="M 105 37 L 142 37 L 142 94 L 105 94 Z M 105 37 "
         id="path56" />
    </clipPath>
    <clipPath
       id="clip20">
      <path
         d="M 73.949219 59.476562 C 73.949219 77.996094 88.960938 93.007812 107.476562 93.007812 C 125.992188 93.007812 141.003906 77.996094 141.003906 59.476562 C 141.003906 40.960938 125.992188 25.949219 107.476562 25.949219 C 88.960938 25.949219 73.949219 40.960938 73.949219 59.476562 "
         id="path59" />
    </clipPath>
    <clipPath
       id="clip21">
      <path
         d="M 4 25 L 73 25 L 73 94 L 4 94 Z M 4 25 "
         id="path62" />
    </clipPath>
    <clipPath
       id="clip22">
      <path
         d="M 4.949219 59.476562 C 4.949219 77.996094 19.960938 93.007812 38.480469 93.007812 C 56.996094 93.007812 72.007812 77.996094 72.007812 59.476562 C 72.007812 40.960938 56.996094 25.949219 38.480469 25.949219 C 19.960938 25.949219 4.949219 40.960938 4.949219 59.476562 "
         id="path65" />
    </clipPath>
    <clipPath
       id="clip23">
      <path
         d="M 23 39 L 73 39 L 73 94 L 23 94 Z M 23 39 "
         id="path68" />
    </clipPath>
    <clipPath
       id="clip24">
      <path
         d="M 4.949219 59.476562 C 4.949219 77.996094 19.960938 93.007812 38.480469 93.007812 C 56.996094 93.007812 72.007812 77.996094 72.007812 59.476562 C 72.007812 40.960938 56.996094 25.949219 38.480469 25.949219 C 19.960938 25.949219 4.949219 40.960938 4.949219 59.476562 "
         id="path71" />
    </clipPath>
  </defs>
  <g
     id="g1071"
     transform="matrix(1.4316673,0,0,1.4315839,52.908772,22.851515)"
     inkscape:export-filename="/home/erkka/Asiakirjat/Koodauksia/Raamattupelit/logo.png"
     inkscape:export-xdpi="96"
     inkscape:export-ydpi="96"
     style="stroke-width:2.25">
    <g
       clip-path="url(#clip21)"
       id="g178"
       style="clip-rule:nonzero;fill:#263238;fill-opacity:1;stroke-width:2.25">
      <g
         clip-path="url(#clip22)"
         id="g176"
         style="clip-rule:nonzero;fill:#263238;fill-opacity:1;stroke-width:2.25">
        <path
           style="fill:#263238;fill-opacity:1;fill-rule:nonzero;stroke:none;stroke-width:2.25"
           d="m 72.007812,59.476562 c 0,18.519532 -15.011718,33.53125 -33.53125,33.53125 -18.515624,0 -33.523437,-15.011718 -33.523437,-33.53125 0,-18.515624 15.007813,-33.527343 33.523437,-33.527343 18.519532,0 33.53125,15.011719 33.53125,33.527343"
           id="path174"
           inkscape:connector-curvature="0" />
      </g>
    </g>
    <g
       clip-path="url(#clip23)"
       id="g184"
       style="clip-rule:nonzero;fill:#0d1a21;fill-opacity:1;stroke-width:2.25">
      <g
         clip-path="url(#clip24)"
         id="g182"
         style="clip-rule:nonzero;fill:#0d1a21;fill-opacity:1;stroke-width:2.25">
        <path
           style="fill:#0d1a21;fill-opacity:1;fill-rule:nonzero;stroke:none;stroke-width:2.25"
           d="m 39.507812,101.95703 -16.183593,-25.652342 3.75,-37.023438 27.542969,2.460938 22.40625,31.765624 z m 0,0"
           id="path180"
           inkscape:connector-curvature="0" />
      </g>
    </g>
    <path
       style="fill:#ffffff;fill-opacity:1;fill-rule:nonzero;stroke:none;stroke-width:2.25"
       d="m 25.285156,39.304688 c -0.06641,-0.01563 -0.136718,-0.02344 -0.207031,-0.02344 h -1.753906 c -0.542969,0 -0.984375,0.441406 -0.984375,0.984375 V 75.32031 c 0,0.542969 0.441406,0.984376 0.984375,0.984376 h 1.753906 c 0.07031,0 0.140625,-0.0078 0.207031,-0.02344 0.07422,0.0078 0.148438,0.02344 0.226563,0.02344 h 1.5625 V 39.28125 h -1.5625 c -0.07813,0 -0.152344,0.01563 -0.226563,0.02344"
       id="path186"
       inkscape:connector-curvature="0" />
    <path
       style="fill:#ffffff;fill-opacity:1;fill-rule:nonzero;stroke:none;stroke-width:2.25"
       d="m 46.273438,52.769531 h -3.425782 v 9.9375 h -2.734375 v -9.9375 H 36.6875 v -2.730469 h 3.425781 v -3.542968 h 2.734375 v 3.542968 h 3.425782 z M 52.15625,39.28125 H 28.003906 V 76.304688 H 52.15625 c 1.355469,0 2.460938,-1.105469 2.460938,-2.460938 V 41.742188 c 0,-1.355469 -1.105469,-2.460938 -2.460938,-2.460938"
       id="path188"
       inkscape:connector-curvature="0" />
    <path
       style="fill:#ffffff;fill-opacity:1;fill-rule:nonzero;stroke:none;stroke-width:2.25"
       d="m 28.210938,82.273438 2.546874,-1.308594 2.542969,1.308594 v -5.089844 h -5.089843 z m 0,0"
       id="path190"
       inkscape:connector-curvature="0" />
  </g>
</svg>
